<?xml version="1.0" encoding="UTF-8" standalone="no"?>
<svg
   version="1.1"
   id="Layer_1"
   x="0px"
   y="0px"
   viewBox="0 0 122.88 122.88"
   xml:space="preserve"
   sodipodi:docname="cone-icon.svg"
   inkscape:version="1.2.1 (9c6d41e410, 2022-07-14)"
   inkscape:export-filename="cone-icon.png"
   inkscape:export-xdpi="156.25"
   inkscape:export-ydpi="156.25"
   width="122.88"
   height="122.88"
   xmlns:inkscape="http://www.inkscape.org/namespaces/inkscape"
   xmlns:sodipodi="http://sodipodi.sourceforge.net/DTD/sodipodi-0.dtd"
   xmlns="http://www.w3.org/2000/svg"
   xmlns:svg="http://www.w3.org/2000/svg"><defs
     id="defs11" /><sodipodi:namedview
     id="namedview9"
     pagecolor="#505050"
     bordercolor="#ffffff"
     borderopacity="1"
     inkscape:showpageshadow="0"
     inkscape:pageopacity="0"
     inkscape:pagecheckerboard="1"
     inkscape:deskcolor="#505050"
     showgrid="false"
     inkscape:zoom="5.0606548"
     inkscape:cx="54.04439"
     inkscape:cy="78.64595"
     inkscape:window-width="1348"
     inkscape:window-height="1041"
     inkscape:window-x="420"
     inkscape:window-y="0"
     inkscape:window-maximized="0"
     inkscape:current-layer="Layer_1" /><style
     type="text/css"
     id="style2">.st0{fill-rule:evenodd;clip-rule:evenodd;}</style><path
     style="fill:#d4aa00;stroke:#364248;stroke-width:0.0698632;stroke-linecap:round"
     d="m 46.179556,30.385895 c 0,-0.185273 7.218837,-25.2172887 7.43308,-25.7749258 0.293083,-0.7628436 1.255536,-2.0117853 1.982524,-2.5726524 1.023067,-0.7892902 2.622442,-1.49868687 3.992411,-1.77081866 1.376327,-0.27339463 3.476703,-0.21094254 4.826272,0.14350327 2.092085,0.54945714 4.057919,1.99295119 4.863486,3.57121369 0.232777,0.4560556 1.886365,6.008796 4.067379,13.6582359 l 3.675135,12.889754 H 61.5997 c -10.513511,0 -15.420144,-0.04592 -15.420144,-0.14431 z"
     id="path324" /><path
     style="fill:#d4aa00;stroke:#364248;stroke-width:0.0698632;stroke-linecap:round"
     d="m 35.144427,68.500839 c 0.0018,-0.01921 1.501697,-5.222272 3.33313,-11.562355 l 3.329876,-11.527423 19.715658,-0.03541 19.715656,-0.03541 0.278406,0.943634 c 0.438634,1.486706 6.127492,21.439467 6.234827,21.867654 l 0.09632,0.384247 H 61.494738 c -14.49446,0 -26.3521,-0.01572 -26.350311,-0.03493 z"
     id="path326" /><path
     style="fill:#d4aa00;stroke:#364248;stroke-width:0.0698632;stroke-linecap:round"
     d="m 5.914831,122.25473 c -4.0622168,-0.98536 -6.58565862,-5.07827 -5.63014695,-9.13185 0.47955538,-2.03442 1.99327425,-3.99603 3.82735845,-4.95981 1.7417357,-0.91525 1.7844566,-0.91874 11.2819505,-0.92104 l 8.547403,-0.002 0.146598,-0.45411 c 0.185023,-0.57314 6.581938,-22.760917 6.581938,-22.829535 0,-0.02786 13.855525,-0.05066 30.790057,-0.05066 h 30.790058 l 3.330743,11.661422 3.330742,11.661423 8.949848,0.0407 8.94984,0.0407 0.96121,0.37346 c 3.0784,1.19605 4.98034,3.90869 4.99675,7.1266 0.011,2.15632 -0.72992,3.94126 -2.26159,5.44841 -1.03665,1.02004 -2.43121,1.78801 -3.73818,2.05856 -0.53047,0.10981 -16.24073,0.14998 -55.401492,0.14164 -45.872282,-0.01 -54.788402,-0.0425 -55.453087,-0.20377 z"
     id="path328" /></svg>
